<?xml version="1.0" encoding="UTF-8" standalone="no"?>
<!-- Created with Inkscape (http://www.inkscape.org/) -->

<svg
   xmlns:dc="http://purl.org/dc/elements/1.1/"
   xmlns:cc="http://creativecommons.org/ns#"
   xmlns:rdf="http://www.w3.org/1999/02/22-rdf-syntax-ns#"
   xmlns:svg="http://www.w3.org/2000/svg"
   xmlns="http://www.w3.org/2000/svg"
   xmlns:sodipodi="http://sodipodi.sourceforge.net/DTD/sodipodi-0.dtd"
   xmlns:inkscape="http://www.inkscape.org/namespaces/inkscape"
   width="164.47253mm"
   height="75.494743mm"
   viewBox="0 0 164.47253 75.494743"
   version="1.1"
   id="svg8"
   inkscape:version="0.92.3 (2405546, 2018-03-11)"
   sodipodi:docname="yourLogo.svg">
  <defs
     id="defs2" />
  <sodipodi:namedview
     id="base"
     pagecolor="#ffffff"
     bordercolor="#666666"
     borderopacity="1.0"
     inkscape:pageopacity="0.0"
     inkscape:pageshadow="2"
     inkscape:zoom="0.98994949"
     inkscape:cx="326.46927"
     inkscape:cy="34.895397"
     inkscape:document-units="mm"
     inkscape:current-layer="layer1"
     showgrid="false"
     fit-margin-top="0"
     fit-margin-left="0"
     fit-margin-right="0"
     fit-margin-bottom="0"
     inkscape:window-width="1920"
     inkscape:window-height="1057"
     inkscape:window-x="-8"
     inkscape:window-y="-8"
     inkscape:window-maximized="1" />
  <metadata
     id="metadata5">
    <rdf:RDF>
      <cc:Work
         rdf:about="">
        <dc:format>image/svg+xml</dc:format>
        <dc:type
           rdf:resource="http://purl.org/dc/dcmitype/StillImage" />
        <dc:title></dc:title>
      </cc:Work>
    </rdf:RDF>
  </metadata>
  <g
     inkscape:label="Ebene 1"
     inkscape:groupmode="layer"
     id="layer1"
     transform="translate(358.81323,-47.210628)">
    <g
       aria-label="your logo"
       transform="scale(0.26458333)"
       style="font-style:normal;font-variant:normal;font-weight:normal;font-stretch:normal;font-size:96px;line-height:125%;font-family:'Franklin Gothic Demi';-inkscape-font-specification:'Franklin Gothic Demi';letter-spacing:0px;word-spacing:0px;fill:#000000;fill-opacity:1;stroke:none;stroke-width:1px;stroke-linecap:butt;stroke-linejoin:miter;stroke-opacity:1"
       id="flowRoot815">
      <path
         d="m -1335.5426,460.38946 c -1.92,-0.096 -3.936,-0.288 -5.952,-0.48 -4.992,-0.576 -8.64,-3.456 -11.808,-7.104 -0.48,-0.576 -0.768,-1.536 -0.768,-2.304 0.096,-2.016 1.056,-2.496 2.88,-1.536 1.536,0.96 2.976,2.016 4.32,3.168 2.304,2.016 5.184,1.92 6.912,-0.672 0.96,-1.344 1.824,-2.88 2.304,-4.512 2.304,-7.104 4.416,-14.304 6.624,-21.408 1.344,-4.512 2.88,-9.024 4.224,-13.536 1.056,-3.648 1.92,-7.392 2.88,-11.136 0.096,-0.48 -0.288,-1.152 -0.384,-1.632 -0.48,0.384 -1.056,0.672 -1.44,1.152 -2.4,3.072 -4.512,6.432 -7.104,9.312 -1.536,1.824 -3.552,3.168 -5.472,4.416 -2.016,1.248 -4.32,1.344 -6.528,0.672 -6.816,-2.304 -12.288,-10.656 -11.136,-18.336 0.96,-6.432 2.4,-12.768 4.512,-18.912 2.592,-7.776 5.472,-15.552 8.16,-23.232 0.384,-1.248 1.248,-1.728 2.4,-1.824 4.896,-0.384 8.928,2.112 10.944,5.856 0.384,0.672 0.48,1.728 0.288,2.496 -1.152,4.032 -2.4,8.16 -3.648,12.192 -1.536,4.992 -3.168,9.984 -4.608,14.976 -1.248,4.032 -2.304,8.16 -3.36,12.288 -0.288,1.056 -0.384,2.112 -0.384,3.168 0,0.48 0.288,1.152 0.576,1.344 0.384,0.192 1.056,-0.096 1.44,-0.384 1.248,-1.152 2.592,-2.208 3.552,-3.552 4.512,-6.048 8.928,-12.096 13.344,-18.048 2.112,-2.88 4.128,-5.76 6.144,-8.64 3.456,-4.8 6.048,-10.08 7.776,-15.648 0.576,-1.728 1.152,-3.456 1.728,-5.184 0.384,-0.96 1.152,-1.536 2.304,-1.344 4.128,0.576 7.392,2.688 9.888,5.856 0.672,0.768 1.152,2.016 1.056,2.976 -0.288,2.496 -0.768,4.992 -1.44,7.488 -0.768,3.168 -1.92,6.336 -2.976,9.408 -1.824,5.28 -3.936,10.368 -5.664,15.648 -1.152,3.36 -1.824,6.816 -2.88,10.176 -1.536,5.184 -3.264,10.368 -4.896,15.552 -3.264,10.08 -6.528,20.16 -9.792,30.144 -0.768,2.208 -1.824,4.32 -2.88,6.432 -1.92,3.456 -4.992,4.8 -8.832,4.704 -0.768,0 -1.536,-0.096 -2.208,-0.192 0,0.096 0,0.192 -0.096,0.192 z"
         style="font-style:normal;font-variant:normal;font-weight:normal;font-stretch:normal;font-family:Vendetta;-inkscape-font-specification:Vendetta"
         id="path846" />
      <path
         d="m -1266.0431,382.91746 c -0.096,2.688 0.576,3.168 2.4,2.304 0.576,-0.288 1.056,-0.672 1.44,-1.152 0.96,-1.248 1.92,-2.4 2.496,-3.744 2.304,-5.376 4.512,-10.752 6.624,-16.128 0.48,-1.056 1.248,-2.592 0,-3.264 -1.344,-0.576 -2.016,0.96 -2.688,1.824 -4.128,5.376 -7.296,11.232 -9.6,17.568 -0.384,1.056 -0.576,2.112 -0.672,2.592 z m -15.072,20.64 c 0.096,0 0.192,0 0.288,0.096 0,0.288 0.096,0.576 0.096,0.96 0.288,1.92 0.672,2.304 2.496,1.344 1.152,-0.576 2.304,-1.44 3.264,-2.4 2.784,-2.784 5.76,-5.376 7.584,-8.928 0.768,-1.344 0.48,-2.112 -0.768,-2.88 -2.016,-1.344 -4.032,-2.784 -6.048,-4.128 -1.44,-1.056 -2.4,-0.864 -2.88,0.864 -1.44,4.992 -2.688,9.984 -4.032,15.072 z m -13.056,-9.6 c 0.576,-5.856 2.112,-10.848 4.512,-15.744 1.536,-2.88 2.784,-5.952 4.32,-8.832 3.264,-5.76 6.24,-11.712 10.56,-16.8 2.304,-2.784 3.456,-3.168 6.816,-2.208 0.672,0.192 1.152,0.48 1.824,0.768 1.248,0.48 2.496,0.48 3.552,-0.384 1.92,-1.728 3.936,-1.728 6.336,-1.152 2.016,0.576 4.128,0.864 6.048,1.92 4.8,2.496 7.488,8.064 6.144,13.344 -0.288,1.056 -0.672,2.016 -0.96,3.072 -0.096,0.48 0.192,1.152 0.288,1.728 0.576,-0.192 1.248,-0.192 1.728,-0.48 0.96,-0.768 1.92,-1.728 2.88,-2.592 1.824,-1.632 3.648,-3.264 5.472,-4.896 0.384,-0.288 1.152,-0.288 1.728,-0.48 0.192,0.672 0.576,1.536 0.384,2.016 -0.864,2.016 -1.728,3.936 -2.88,5.76 -2.976,4.704 -6.528,8.832 -10.656,12.672 -3.36,3.072 -6.816,6.144 -9.312,10.08 -0.864,1.44 -1.632,2.976 -2.496,4.416 -3.84,6.048 -8.736,11.232 -13.92,16.128 -2.304,2.208 -5.184,3.456 -8.16,2.88 -2.4,-0.48 -4.8,-1.92 -6.72,-3.456 -3.744,-2.784 -5.952,-6.816 -7.008,-11.232 -0.576,-2.208 -0.384,-4.608 -0.48,-6.528 z"
         style="font-style:normal;font-variant:normal;font-weight:normal;font-stretch:normal;font-family:Vendetta;-inkscape-font-specification:Vendetta"
         id="path848" />
      <path
         d="m -1199.0021,414.69346 c -5.952,0.192 -12.096,-4.032 -13.728,-8.928 -0.672,-1.92 -1.344,-3.84 -0.864,-5.952 0.192,-0.672 -0.288,-1.536 -0.48,-2.304 -0.576,0.48 -1.248,0.768 -1.728,1.344 -1.824,2.304 -3.648,4.608 -5.376,7.104 -2.304,3.456 -5.568,5.856 -8.928,8.256 -2.208,1.536 -7.968,0.672 -10.656,-1.344 -3.936,-2.976 -5.568,-6.816 -5.184,-11.904 0.672,-7.296 2.112,-14.304 4.608,-21.216 1.056,-2.976 1.92,-6.144 2.88,-9.12 1.632,-4.992 3.264,-9.984 4.896,-14.976 0.384,-1.152 0.96,-1.92 2.208,-1.728 3.168,0.384 6.048,1.344 8.544,3.36 2.304,1.824 3.168,4.224 2.112,7.104 -1.536,4.512 -2.976,8.928 -4.512,13.344 -1.92,5.568 -4.128,11.04 -5.76,16.704 -1.056,3.456 -1.44,7.104 -2.016,10.656 -0.096,0.576 0.288,1.152 0.48,1.728 0.48,-0.192 1.056,-0.192 1.44,-0.576 1.536,-1.536 3.36,-2.976 4.608,-4.704 3.648,-5.088 7.104,-10.272 10.56,-15.36 2.784,-4.032 5.568,-8.064 8.352,-12.096 1.92,-2.784 3.456,-5.664 4.512,-8.832 0.96,-3.072 2.112,-6.048 3.168,-9.12 0.48,-1.344 1.632,-1.728 2.784,-1.728 4.128,0.096 7.68,1.632 10.464,4.8 1.056,1.248 1.056,2.784 0.48,4.512 -2.112,5.76 -4.032,11.616 -6.048,17.472 -0.96,2.688 -2.016,5.376 -2.976,8.16 -1.536,4.608 -3.072,9.312 -4.608,14.016 -0.096,0.384 -0.384,0.768 -0.288,1.152 0,0.576 0.192,1.344 0.48,1.44 0.48,0.096 1.344,0 1.728,-0.288 1.728,-1.536 3.456,-3.168 5.088,-4.8 1.728,-1.824 3.264,-3.744 4.992,-5.568 0.48,-0.48 0.96,-1.056 1.632,-1.536 0.96,-0.672 1.728,-0.48 1.728,0.672 0,2.016 -0.096,4.032 -0.576,6.048 -0.96,4.32 -3.36,8.064 -6.432,11.232 -2.208,2.4 -5.28,3.072 -7.584,2.976 z"
         style="font-style:normal;font-variant:normal;font-weight:normal;font-stretch:normal;font-family:Vendetta;-inkscape-font-specification:Vendetta"
         id="path850" />
      <path
         d="m -1153.6151,375.14146 c 0.48,-2.4 1.056,-4.8 1.536,-7.2 0.096,-0.48 -0.192,-0.96 -0.288,-1.44 -0.384,0.192 -0.864,0.384 -1.152,0.768 -1.344,1.632 -2.784,3.36 -3.84,5.184 -4.512,7.104 -8.832,14.304 -12.384,22.08 -2.592,5.568 -5.568,11.04 -8.448,16.512 -2.4,4.512 -4.128,4.704 -8.352,1.824 -2.88,-2.016 -5.28,-4.416 -6.336,-7.776 -0.384,-1.44 -0.576,-3.264 -0.192,-4.704 2.112,-6.912 4.32,-13.824 7.68,-20.352 3.936,-7.776 7.584,-15.744 11.328,-23.616 1.344,-2.976 2.784,-3.84 5.664,-2.592 1.824,0.672 3.456,1.92 4.896,3.168 1.536,1.344 2.304,3.264 1.728,5.472 -0.192,0.768 -0.288,1.44 -0.384,2.208 -0.096,0.288 0.096,0.576 0.192,0.864 0.288,-0.096 0.576,-0.096 0.768,-0.288 1.344,-1.44 2.688,-2.88 3.936,-4.32 1.632,-1.92 3.264,-3.84 4.992,-5.76 1.44,-1.44 2.88,-2.88 4.416,-4.128 5.184,-4.128 12.96,-1.728 14.784,4.608 0.288,1.152 0.096,2.592 -0.192,3.744 -1.056,3.552 -1.824,7.296 -4.032,10.464 0,0.096 -0.096,0.192 -0.096,0.288 -0.288,1.056 -1.44,2.304 -0.192,3.168 1.248,0.96 2.112,-0.384 2.976,-1.056 2.016,-1.728 3.936,-3.456 5.856,-5.088 0.384,-0.288 1.056,-0.48 1.44,-0.288 0.384,0.096 0.48,0.864 0.48,1.344 0.096,0.576 0.096,1.344 -0.192,1.824 -2.112,3.552 -4.224,7.2 -6.624,10.56 -1.344,1.92 -3.168,3.456 -4.896,5.088 -2.784,2.88 -7.584,2.976 -10.656,-0.192 -2.688,-2.784 -4.608,-6.144 -4.416,-10.368 z"
         style="font-style:normal;font-variant:normal;font-weight:normal;font-stretch:normal;font-family:Vendetta;-inkscape-font-specification:Vendetta"
         id="path852" />
      <path
         d="m -1097.2031,434.56546 c -0.192,-4.32 0.768,-8.544 1.728,-12.672 1.728,-6.72 2.976,-13.536 4.8,-20.256 2.88,-10.464 5.856,-21.024 9.888,-31.104 3.744,-9.792 7.488,-19.584 11.328,-29.28 1.152,-3.168 2.592,-6.336 3.936,-9.408 0.576,-1.536 2.112,-2.496 3.648,-1.92 3.264,1.056 6.624,2.4 8.928,5.28 0.96,1.248 1.248,2.496 0.672,3.936 -1.152,3.072 -2.304,6.144 -3.552,9.216 -1.632,4.128 -3.36,8.256 -4.992,12.48 -2.496,6.336 -4.992,12.768 -7.296,19.2 -1.824,4.992 -3.456,10.08 -4.992,15.168 -2.112,7.296 -4.032,14.688 -6.24,21.888 -2.208,7.584 -3.552,15.264 -4.32,23.04 -0.096,1.152 0.192,2.976 0.96,3.36 1.248,0.864 2.304,-0.768 2.976,-1.728 2.976,-4.32 5.952,-8.64 8.64,-13.056 3.648,-6.048 7.104,-12.192 10.656,-18.24 0.192,-0.48 0.672,-0.672 1.056,-1.056 0.288,0.384 0.768,0.768 0.864,1.248 0.192,0.672 0.192,1.536 0.096,2.208 -0.672,3.072 -1.152,6.336 -2.208,9.312 -1.056,3.168 -2.4,6.144 -4.032,9.024 -2.784,5.088 -5.664,10.08 -8.928,14.88 -1.536,2.208 -3.84,4.32 -6.336,5.568 -3.456,1.728 -7.104,0.48 -10.272,-1.632 -4.8,-3.072 -7.104,-7.488 -7.008,-13.248 0,-0.768 0,-1.44 0,-2.208 z"
         style="font-style:normal;font-variant:normal;font-weight:normal;font-stretch:normal;font-family:Vendetta;-inkscape-font-specification:Vendetta"
         id="path854" />
      <path
         d="m -1033.5431,382.91746 c -0.096,2.688 0.576,3.168 2.4,2.304 0.576,-0.288 1.056,-0.672 1.44,-1.152 0.96,-1.248 1.92,-2.4 2.496,-3.744 2.304,-5.376 4.512,-10.752 6.624,-16.128 0.48,-1.056 1.248,-2.592 0,-3.264 -1.344,-0.576 -2.016,0.96 -2.688,1.824 -4.128,5.376 -7.296,11.232 -9.6,17.568 -0.384,1.056 -0.576,2.112 -0.672,2.592 z m -15.072,20.64 c 0.096,0 0.192,0 0.288,0.096 0,0.288 0.096,0.576 0.096,0.96 0.288,1.92 0.672,2.304 2.496,1.344 1.152,-0.576 2.304,-1.44 3.264,-2.4 2.784,-2.784 5.76,-5.376 7.584,-8.928 0.768,-1.344 0.48,-2.112 -0.768,-2.88 -2.016,-1.344 -4.032,-2.784 -6.048,-4.128 -1.44,-1.056 -2.4,-0.864 -2.88,0.864 -1.44,4.992 -2.688,9.984 -4.032,15.072 z m -13.056,-9.6 c 0.576,-5.856 2.112,-10.848 4.512,-15.744 1.536,-2.88 2.784,-5.952 4.32,-8.832 3.264,-5.76 6.24,-11.712 10.56,-16.8 2.304,-2.784 3.456,-3.168 6.816,-2.208 0.672,0.192 1.152,0.48 1.824,0.768 1.248,0.48 2.496,0.48 3.552,-0.384 1.92,-1.728 3.936,-1.728 6.336,-1.152 2.016,0.576 4.128,0.864 6.048,1.92 4.8,2.496 7.488,8.064 6.144,13.344 -0.288,1.056 -0.672,2.016 -0.96,3.072 -0.096,0.48 0.192,1.152 0.288,1.728 0.576,-0.192 1.248,-0.192 1.728,-0.48 0.96,-0.768 1.92,-1.728 2.88,-2.592 1.824,-1.632 3.648,-3.264 5.472,-4.896 0.384,-0.288 1.152,-0.288 1.728,-0.48 0.192,0.672 0.57602,1.536 0.384,2.016 -0.864,2.016 -1.728,3.936 -2.88,5.76 -2.976,4.704 -6.528,8.832 -10.656,12.672 -3.36,3.072 -6.816,6.144 -9.312,10.08 -0.864,1.44 -1.632,2.976 -2.496,4.416 -3.84,6.048 -8.736,11.232 -13.92,16.128 -2.304,2.208 -5.184,3.456 -8.16,2.88 -2.4,-0.48 -4.8,-1.92 -6.72,-3.456 -3.744,-2.784 -5.952,-6.816 -7.008,-11.232 -0.576,-2.208 -0.384,-4.608 -0.48,-6.528 z"
         style="font-style:normal;font-variant:normal;font-weight:normal;font-stretch:normal;font-family:Vendetta;-inkscape-font-specification:Vendetta"
         id="path856" />
      <path
         d="m -1002.5021,401.15746 c 0.192,0.288 0.288,0.96 0.672,1.248 0.288,0.192 1.056,0 1.44,-0.288 0.76802,-0.48 1.63202,-1.152 2.11202,-1.92 4.224,-5.472 8.256,-11.04 12.384,-16.704 3.648,-5.088 6.24,-10.848 9.984,-15.84 0.384,-0.576 0.576,-1.248 0.768,-1.824 0.672,-1.632 0,-2.688 -1.728,-2.688 -0.576,0 -1.248,0.096 -1.824,0.384 -5.184,2.688 -9.696,6.24 -12.864,11.232 -2.208,3.648 -4.32,7.296 -6.24,11.136 -2.49602,4.608 -3.74402,9.696 -4.70402,15.264 z m -10.848,-4.704 c -0.48,-4.032 1.248,-7.488 2.016,-11.04 1.344,-5.952 4.608,-11.04 7.296,-16.416 2.688,-5.28 6.81602,-8.928 11.32802,-12.384 4.32,-3.168 8.928,-3.072 13.632,-1.152 1.728,0.672 3.264,1.632 4.896,2.496 1.152,0.576 2.208,1.056 2.88,-0.576 0.576,-1.152 1.536,-1.056 2.496,-0.96 3.648,0.576 6.624,2.304 8.832,5.28 1.248,1.632 1.536,3.552 1.152,5.472 -0.576,3.744 -1.248,7.392 -1.92,11.136 -0.864,4.608 -1.728,9.216 -2.784,13.824 -0.768,3.36 -1.728,6.816 -2.496,10.176 -1.536,6.816 -2.688,13.728 -4.512,20.352 -2.496,8.64 -5.28,17.184 -8.256,25.632 -1.056,3.072 -2.592,6.048 -4.224,8.928 -4.032,7.104 -11.712,7.392 -17.76002,5.664 -4.704,-1.248 -8.064,-4.608 -11.04,-8.352 -0.384,-0.384 -0.576,-0.864 -0.768,-1.344 -0.672,-1.248 -0.96,-2.784 0.096,-3.552 0.576,-0.48 2.304,0 3.168,0.672 2.016,1.632 4.128,3.36 5.76,5.376 1.728,2.112 3.74402,2.208 5.47202,0.48 1.632,-1.632 3.168,-3.36 4.032,-5.76 1.44,-4.32 3.456,-8.544 4.896,-12.864 1.44,-4.32 2.592,-8.832 3.744,-13.248 1.44,-5.472 2.88,-10.944 4.128,-16.416 1.056,-4.896 1.728,-9.888 2.592,-14.88 0.384,-2.016 0.768,-3.936 1.248,-5.952 0.192,-0.768 0.288,-1.632 -0.672,-1.728 -0.384,-0.096 -1.056,0.576 -1.248,1.056 -2.784,6.144 -6.432,11.808 -10.752,16.992 -1.824,2.112 -3.552,4.32 -5.568,6.144 -2.016,1.92 -4.51202,3.264 -7.29602,2.4 -2.784,-0.768 -5.28,-2.304 -7.008,-4.8 -2.112,-3.264 -3.744,-6.72 -3.36,-10.656 z"
         style="font-style:normal;font-variant:normal;font-weight:normal;font-stretch:normal;font-family:Vendetta;-inkscape-font-specification:Vendetta"
         id="path858" />
      <path
         d="m -930.60558,382.91746 c -0.096,2.688 0.576,3.168 2.4,2.304 0.576,-0.288 1.056,-0.672 1.44,-1.152 0.96,-1.248 1.92,-2.4 2.496,-3.744 2.304,-5.376 4.512,-10.752 6.624,-16.128 0.48,-1.056 1.248,-2.592 0,-3.264 -1.344,-0.576 -2.016,0.96 -2.688,1.824 -4.128,5.376 -7.296,11.232 -9.6,17.568 -0.384,1.056 -0.576,2.112 -0.672,2.592 z m -15.072,20.64 c 0.096,0 0.192,0 0.288,0.096 0,0.288 0.096,0.576 0.096,0.96 0.288,1.92 0.672,2.304 2.496,1.344 1.152,-0.576 2.304,-1.44 3.264,-2.4 2.784,-2.784 5.76,-5.376 7.584,-8.928 0.768,-1.344 0.48,-2.112 -0.768,-2.88 -2.016,-1.344 -4.032,-2.784 -6.048,-4.128 -1.44,-1.056 -2.4,-0.864 -2.88,0.864 -1.44,4.992 -2.688,9.984 -4.032,15.072 z m -13.056,-9.6 c 0.576,-5.856 2.112,-10.848 4.512,-15.744 1.536,-2.88 2.784,-5.952 4.32,-8.832 3.264,-5.76 6.24,-11.712 10.56,-16.8 2.304,-2.784 3.456,-3.168 6.816,-2.208 0.672,0.192 1.152,0.48 1.824,0.768 1.248,0.48 2.496,0.48 3.552,-0.384 1.92,-1.728 3.936,-1.728 6.336,-1.152 2.016,0.576 4.128,0.864 6.048,1.92 4.8,2.496 7.488,8.064 6.144,13.344 -0.288,1.056 -0.672,2.016 -0.96,3.072 -0.096,0.48 0.192,1.152 0.288,1.728 0.576,-0.192 1.248,-0.192 1.728,-0.48 0.96,-0.768 1.92,-1.728 2.88,-2.592 1.824,-1.632 3.648,-3.264 5.472,-4.896 0.384,-0.288 1.152,-0.288 1.728,-0.48 0.192,0.672 0.576,1.536 0.384,2.016 -0.864,2.016 -1.728,3.936 -2.88,5.76 -2.976,4.704 -6.528,8.832 -10.656,12.672 -3.36,3.072 -6.816,6.144 -9.312,10.08 -0.864,1.44 -1.632,2.976 -2.496,4.416 -3.84,6.048 -8.736,11.232 -13.92,16.128 -2.304,2.208 -5.184,3.456 -8.16,2.88 -2.4,-0.48 -4.8,-1.92 -6.72,-3.456 -3.744,-2.784 -5.952,-6.816 -7.008,-11.232 -0.576,-2.208 -0.384,-4.608 -0.48,-6.528 z"
         style="font-style:normal;font-variant:normal;font-weight:normal;font-stretch:normal;font-family:Vendetta;-inkscape-font-specification:Vendetta"
         id="path860" />
    </g>
    <path
       style="opacity:1;fill:#ff2a7f;fill-opacity:1;fill-rule:evenodd;stroke:none;stroke-width:1;stroke-linecap:butt;stroke-linejoin:miter;stroke-miterlimit:4;stroke-dasharray:none;stroke-dashoffset:0;stroke-opacity:1;paint-order:normal"
       d="m -226.11697,47.218818 a 32.505951,32.505951 0 0 0 -22.8477,8.676989 32.505951,32.505951 0 0 0 -8.72918,33.841861 15.119045,15.119045 0 0 1 1.59887,-2.31562 20.410712,20.410712 0 0 1 6.49676,-14.432711 20.410712,20.410712 0 0 1 28.84527,1.069702 20.410712,20.410712 0 0 1 -1.06971,28.845271 20.410712,20.410712 0 0 1 -12.52481,5.39192 15.119045,15.119045 0 0 1 -3.01222,2.11925 32.505951,32.505951 0 0 0 32.63108,-6.87762 32.505951,32.505951 0 0 0 1.70274,-45.938798 32.505951,32.505951 0 0 0 -23.0911,-10.380244 z"
       id="path823"
       inkscape:connector-curvature="0" />
    <path
       style="opacity:1;fill:#6c5353;fill-opacity:1;fill-rule:evenodd;stroke:none;stroke-width:0.62790692;stroke-linecap:butt;stroke-linejoin:miter;stroke-miterlimit:4;stroke-dasharray:none;stroke-dashoffset:0;stroke-opacity:1;paint-order:normal"
       d="m -237.95087,71.078342 c -5.30861,-0.119132 -10.45467,1.835228 -14.34589,5.448247 -4.11901,3.839104 -5.41074,9.209263 -5.43585,14.83992 4.97431,-10.479583 19.69747,-15.495029 26.52551,-6.569106 6.82804,8.925923 2.30331,21.867387 -8.61911,25.982397 5.62852,0.39381 11.16897,-0.50155 15.30553,-4.33876 8.26029,-7.670108 8.73897,-20.584165 1.06918,-28.844749 -3.75365,-4.042868 -8.984,-6.394082 -14.49937,-6.517949 z"
       id="path830"
       inkscape:connector-curvature="0"
       sodipodi:nodetypes="ccczcccc" />
  </g>
</svg>
